<?xml version="1.0" encoding="UTF-8"?>
<!DOCTYPE svg PUBLIC "-//W3C//DTD SVG 1.1//EN" "http://www.w3.org/Graphics/SVG/1.1/DTD/svg11.dtd">
<!-- Creator: CorelDRAW X7 -->
<svg xmlns="http://www.w3.org/2000/svg" xml:space="preserve" width="1181px" height="1181px" version="1.1" style="shape-rendering:geometricPrecision; text-rendering:geometricPrecision; image-rendering:optimizeQuality; fill-rule:evenodd; clip-rule:evenodd"
viewBox="0 0 1181 1181"
 xmlns:xlink="http://www.w3.org/1999/xlink">
 <defs>
  <style type="text/css">
   <![CDATA[
    .fil0 {fill:black;fill-rule:nonzero}
    .fil1 {fill:#EE7AAD;fill-rule:nonzero}
   ]]>
  </style>
 </defs>
 <g id="Слой_x0020_1">
  <metadata id="CorelCorpID_0Corel-Layer"/>
  <path class="fil0" d="M115 41l43 0 0 55 129 0 0 -55 43 0 0 209 -43 0 0 -118 -129 0 0 118 -43 0 0 -209zm391 0l44 0 101 209 -44 0 -17 -35 -122 0 -16 35 -44 0 98 -209zm68 139l-46 -95 -43 95 89 0zm150 -139l42 0 0 209 -42 0 0 -209zm142 0l106 0c16,0 30,2 41,5 12,4 22,8 30,15 7,6 13,14 17,23 4,9 6,19 6,31 0,7 -1,15 -3,22 -2,7 -5,13 -9,19 -4,6 -8,11 -14,16 -6,4 -13,8 -21,11l45 67 -51 0 -40 -59 -1 0 -64 -1 0 60 -42 0 0 -209zm107 113c8,0 15,-1 21,-3 6,-2 11,-4 15,-8 4,-3 7,-7 9,-12 2,-5 3,-10 3,-16 0,-12 -4,-21 -12,-27 -8,-7 -20,-10 -36,-10l-65 0 0 76 65 0z"/>
  <path class="fil1" d="M225 379l42 0 42 0 42 0 0 36 -42 0 0 83 260 0 0 -83 -43 0 0 -36 43 0 42 0 43 0 42 0 85 0c32,0 60,3 83,10 24,7 43,16 59,29 15,13 27,28 34,46 8,18 12,39 12,62 0,15 -2,30 -6,44 -4,14 -9,27 -17,39 -8,11 -18,22 -29,31 -12,9 -26,17 -42,23l66 97 58 0 0 36 -33 0 -52 0 -52 0 -78 -118 -3 0 -127 -1 0 83 42 0 0 36 -42 0 -1 0 -42 0 -42 0 -43 0 0 -36 43 0 0 -190 -260 0 0 190 42 0 0 36 -42 0 -42 0 -42 0 -43 0 0 -36 43 0 0 -345 -43 0 0 -36 43 0zm429 74l0 151 129 0c16,0 30,-2 42,-5 12,-4 22,-9 30,-16 8,-7 14,-15 18,-25 4,-9 6,-20 6,-32 0,-24 -8,-41 -24,-54 -16,-13 -40,-19 -72,-19l-129 0z"/>
  <path class="fil0" d="M6 928l106 0c16,0 30,2 42,5 11,4 21,8 29,15 8,6 13,14 17,23 4,9 6,19 6,31 0,7 -1,15 -3,22 -2,7 -5,13 -9,19 -3,6 -8,11 -14,16 -6,4 -13,8 -21,11l46 67 -52 0 -39 -59 -2 0 -64 -1 0 60 -42 0 0 -209zm107 113c8,0 15,-1 21,-3 6,-2 11,-4 15,-8 4,-3 7,-7 9,-12 2,-5 3,-10 3,-16 0,-12 -4,-21 -12,-27 -8,-7 -20,-10 -36,-10l-65 0 0 76 65 0zm176 -9c0,-16 3,-30 9,-43 5,-13 14,-25 24,-34 10,-9 23,-17 38,-22 14,-5 31,-8 48,-8 18,0 34,3 49,8 15,5 27,13 38,22 10,9 18,21 24,34 6,13 9,27 9,43 0,16 -3,30 -9,43 -6,14 -14,25 -24,35 -11,9 -23,17 -38,22 -15,5 -31,8 -49,8 -17,0 -34,-3 -48,-8 -15,-5 -28,-13 -38,-22 -10,-10 -19,-21 -24,-35 -6,-13 -9,-27 -9,-43zm42 0c0,11 2,20 6,29 4,9 9,16 16,22 7,6 15,11 25,14 9,3 19,5 30,5 11,0 22,-2 31,-5 9,-3 17,-8 24,-14 7,-6 13,-13 16,-22 4,-9 6,-18 6,-29 0,-11 -2,-21 -6,-29 -3,-9 -9,-16 -16,-22 -7,-6 -15,-10 -24,-13 -9,-3 -20,-5 -31,-5 -11,0 -21,2 -30,5 -10,3 -18,7 -25,13 -7,6 -12,13 -16,22 -4,8 -6,18 -6,29zm277 0c0,-16 3,-30 8,-43 6,-13 14,-25 25,-34 10,-9 23,-17 37,-22 15,-5 31,-8 49,-8 18,0 34,3 49,8 14,5 27,13 37,22 11,9 19,21 25,34 5,13 8,27 8,43 0,16 -3,30 -8,43 -6,14 -14,25 -25,35 -10,9 -23,17 -37,22 -15,5 -31,8 -49,8 -18,0 -34,-3 -49,-8 -14,-5 -27,-13 -37,-22 -11,-10 -19,-21 -25,-35 -5,-13 -8,-27 -8,-43zm42 0c0,11 2,20 6,29 4,9 9,16 16,22 7,6 15,11 24,14 10,3 20,5 31,5 11,0 21,-2 31,-5 9,-3 17,-8 24,-14 7,-6 12,-13 16,-22 4,-9 6,-18 6,-29 0,-11 -2,-21 -6,-29 -4,-9 -9,-16 -16,-22 -7,-6 -15,-10 -24,-13 -10,-3 -20,-5 -31,-5 -11,0 -21,2 -31,5 -9,3 -17,7 -24,13 -7,6 -12,13 -16,22 -4,8 -6,18 -6,29zm289 -104l42 0 76 76 76 -76 42 0 0 209 -42 0 0 -150 -76 73 -76 -73 0 150 -42 0 0 -209z"/>
 </g>
</svg>
