<?xml version="1.0" encoding="UTF-8"?>
<!DOCTYPE svg PUBLIC "-//W3C//DTD SVG 1.1//EN" "http://www.w3.org/Graphics/SVG/1.1/DTD/svg11.dtd">
<!-- Creator: CorelDRAW X7 -->
<svg xmlns="http://www.w3.org/2000/svg" xml:space="preserve" width="1181px" height="154px" version="1.1" style="shape-rendering:geometricPrecision; text-rendering:geometricPrecision; image-rendering:optimizeQuality; fill-rule:evenodd; clip-rule:evenodd"
viewBox="0 0 1181 154"
 xmlns:xlink="http://www.w3.org/1999/xlink">
 <defs>
  <style type="text/css">
   <![CDATA[
    .fil0 {fill:black;fill-rule:nonzero}
    .fil1 {fill:#EE7AAD;fill-rule:nonzero}
   ]]>
  </style>
 </defs>
 <g id="Слой_x0020_1">
  <metadata id="CorelCorpID_0Corel-Layer"/>
  <path class="fil0" d="M6 46l15 0 0 19 45 0 0 -19 15 0 0 73 -15 0 0 -41 -45 0 0 41 -15 0 0 -73zm136 0l16 0 35 73 -15 0 -6 -12 -43 0 -5 12 -16 0 34 -73zm24 49l-16 -33 -15 33 31 0zm52 -49l15 0 0 73 -15 0 0 -73zm50 0l37 0c5,0 10,1 14,2 5,1 8,3 11,5 2,2 4,5 6,8 1,3 2,7 2,11 0,2 -1,5 -1,8 -1,2 -2,4 -3,6 -2,2 -3,4 -5,6 -2,1 -5,3 -8,4l16 23 -18 0 -14 -21 0 0 -22 0 0 21 -15 0 0 -73zm37 40c3,0 6,-1 8,-1 2,-1 3,-2 5,-3 1,-1 2,-3 3,-5 1,-1 1,-3 1,-5 0,-4 -1,-7 -4,-10 -3,-2 -7,-3 -13,-3l-22 0 0 27 22 0zm462 -40l37 0c6,0 10,1 15,2 4,1 7,3 10,5 2,2 4,5 6,8 1,3 2,7 2,11 0,2 -1,5 -1,8 -1,2 -2,4 -3,6 -2,2 -3,4 -5,6 -2,1 -5,3 -8,4l16 23 -18 0 -13 -21 -1 0 -22 0 0 21 -15 0 0 -73zm37 40c3,0 6,-1 8,-1 2,-1 4,-2 5,-3 1,-1 2,-3 3,-5 1,-1 1,-3 1,-5 0,-4 -1,-7 -4,-10 -3,-2 -7,-3 -13,-3l-22 0 0 27 22 0zm62 -4c0,-5 1,-10 3,-15 2,-4 5,-8 8,-11 4,-4 8,-6 13,-8 6,-2 11,-3 17,-3 7,0 12,1 17,3 6,2 10,4 14,8 3,3 6,7 8,11 2,5 3,10 3,15 0,6 -1,11 -3,16 -2,4 -5,8 -8,11 -4,4 -8,6 -14,8 -5,2 -10,3 -17,3 -6,0 -11,-1 -17,-3 -5,-2 -9,-4 -13,-8 -3,-3 -6,-7 -8,-11 -2,-5 -3,-10 -3,-16zm15 0c0,4 0,8 2,11 1,3 3,5 5,7 3,2 5,4 9,5 3,1 7,2 10,2 4,0 8,-1 11,-2 3,-1 6,-3 9,-5 2,-2 4,-4 5,-7 2,-3 2,-7 2,-11 0,-3 0,-7 -2,-10 -1,-3 -3,-5 -5,-7 -3,-2 -6,-4 -9,-5 -3,-1 -7,-2 -11,-2 -3,0 -7,1 -10,2 -4,1 -6,3 -9,5 -2,2 -4,4 -5,7 -2,3 -2,7 -2,10zm96 0c0,-5 1,-10 3,-15 2,-4 5,-8 9,-11 3,-4 8,-6 13,-8 5,-2 10,-3 17,-3 6,0 12,1 17,3 5,2 9,4 13,8 3,3 6,7 8,11 2,5 3,10 3,15 0,6 -1,11 -3,16 -2,4 -5,8 -8,11 -4,4 -8,6 -13,8 -5,2 -11,3 -17,3 -7,0 -12,-1 -17,-3 -5,-2 -10,-4 -13,-8 -4,-3 -7,-7 -9,-11 -2,-5 -3,-10 -3,-16zm15 0c0,4 0,8 2,11 1,3 3,5 5,7 3,2 6,4 9,5 3,1 7,2 11,2 4,0 7,-1 10,-2 4,-1 6,-3 9,-5 2,-2 4,-4 6,-7 1,-3 2,-7 2,-11 0,-3 -1,-7 -2,-10 -2,-3 -4,-5 -6,-7 -3,-2 -5,-4 -9,-5 -3,-1 -6,-2 -10,-2 -4,0 -8,1 -11,2 -3,1 -6,3 -9,5 -2,2 -4,4 -5,7 -2,3 -2,7 -2,10zm101 -36l14 0 27 27 26 -27 15 0 0 73 -15 0 0 -52 -26 25 -27 -25 0 52 -14 0 0 -73z"/>
  <path class="fil1" d="M425 4l15 0 15 0 15 0 0 13 -15 0 0 28 90 0 0 -28 -14 0 0 -13 14 0 15 0 15 0 15 0 30 0c11,0 20,1 29,3 8,3 15,6 20,11 5,4 9,9 12,16 3,6 4,13 4,21 0,6 -1,11 -2,16 -1,4 -3,9 -6,13 -3,4 -6,8 -10,11 -4,3 -9,6 -15,8l24 34 20 0 0 13 -12 0 -18 0 -18 0 -27 -42 -1 0 -45 0 0 29 15 0 0 13 -15 0 0 0 -15 0 -15 0 -14 0 0 -13 14 0 0 -66 -90 0 0 66 15 0 0 13 -15 0 -15 0 -15 0 -14 0 0 -13 14 0 0 -120 -14 0 0 -13 14 0zm150 26l0 53 45 0c6,0 11,-1 15,-2 4,-2 8,-4 11,-6 2,-2 4,-5 6,-8 1,-4 2,-8 2,-12 0,-8 -3,-14 -8,-19 -6,-4 -14,-6 -26,-6l-45 0z"/>
 </g>
</svg>
